<?xml version="1.0" encoding="utf-8"?>
<!-- Generator: Adobe Illustrator 23.0.3, SVG Export Plug-In . SVG Version: 6.00 Build 0)  -->
<svg xmlns:xlink="http://www.w3.org/1999/xlink" version="1.1" id="Layer_1" xmlns="http://www.w3.org/2000/svg" x="0px" y="0px"
	 viewBox="0 0 47 40" style="enable-background:new 0 0 47 40;" xml:space="preserve">
<style type="text/css">
	.st0{fill:#231F20;}
</style>
<path class="st0" d="M43,9.5H4c-0.3,0-0.5-0.3-0.5-0.8V7.3c0-0.4,0.2-0.8,0.5-0.8h39c0.3,0,0.5,0.3,0.5,0.8v1.5
	C43.5,9.2,43.3,9.5,43,9.5z"/>
<path class="st0" d="M43,32.5H4c-0.3,0-0.5-0.3-0.5-0.7v-1.5c0-0.4,0.2-0.8,0.5-0.8h39c0.3,0,0.5,0.3,0.5,0.8v1.5
	C43.5,32.2,43.3,32.5,43,32.5z"/>
<path class="st0" d="M43,21H4c-0.3,0-0.5-0.3-0.5-0.8v-1.5C3.5,18.3,3.7,18,4,18h39c0.3,0,0.5,0.3,0.5,0.8v1.5
	C43.5,20.7,43.3,21,43,21z"/>
</svg>
